<?xml version="1.0" encoding="UTF-8"?>
<svg version="1.1" viewBox="0 0 1024 1024" width="1024" height="1024" xmlns="http://www.w3.org/2000/svg">
  <rect width="1024" height="1024" fill="hsl(187, 70%, 48%)"/>
  <g transform="translate(512 512) scale(1.4) translate(-512 -512)">
    <path transform="translate(716,206)" d="m0 0 3 1-18 45-12 29-14 33-18 42-22 52-6 13-9 22h128l-1 6-16 49-18 54-12 34-3 7-75 49-17 11-25 16-17 11-66 42-19 12-24 15-19 12-26 16-22 14-24 15-25 15-1-2 12-31 32-78 19-46 18-44 16-39 8-20h-37l-70-2-21-1 3-10 14-37 20-52 18-46 10-7 29-17 28-17 27-16 28-17 39-23 25-15 44-26 40-24 29-17 27-16zm-159 187-23 15-18 11-15 10-33 21-19 12 5 5 17 12 36 26 19 14 16 11-1 6-13 30-16 38-2 6 5-2 10-7 13-9 53-36 15-10 16-11 4-4-51-36-20-14-17-12-6-4 1-6 14-35 12-29v-2z" fill="hsl(240, 10%, 4%)"/>
  </g>
</svg>

